<?xml version="1.0" standalone="no"?><!DOCTYPE svg PUBLIC "-//W3C//DTD SVG 1.1//EN" "http://www.w3.org/Graphics/SVG/1.1/DTD/svg11.dtd"><svg t="1605167465450" class="icon" viewBox="0 0 1024 1024" version="1.1" xmlns="http://www.w3.org/2000/svg" p-id="904" xmlns:xlink="http://www.w3.org/1999/xlink" width="200" height="200"><defs><style type="text/css"></style></defs><path d="M988.56893588 312.3442254c21.16828981-102.05794523 0-195.09899988 0-195.0989999-19.24892107-37.2274686-62.88349108 46.20293394-62.88349108 46.20293395l-59.0447536-1.27037356c-41.06620607-52.63765217-53.90802574-53.90802574-53.90802574-53.90802573-32.07693232-1.29799037-8.98927376 182.24337183-8.98927375 182.24337183-10.25964732 46.21674235-83.43040253 56.47638966-83.43040253 56.47638964-309.30834435 55.1922077-260.5370465 447.944763-260.5370465 447.94476301-84.70077609 109.10023342-238.9130792 16.08679558-311.8905167-11.55763769-82.57428122-31.26223623-111.95857393-11.80618903-123.19861823-1.27037355-42.62655621 39.87868297 24.05424714 62.96634153 43.63457001 66.73603697 48.03945223 9.2378251 85.0597947 17.23289347 111.66859737 28.22438643 94.98804021 39.2573046 170.68573413 32.10454914 170.68573413 32.10454913 87.28294843 2.56836393 129.64714486-29.50856838 129.64714487-29.50856839 8.98927376 21.817285 18.72420157 24.71705073 28.23819484 25.65602249 44.04882225 4.363457 177.12045237 0 177.12045236 0 60.31512715 30.80655875 82.13241215-12.82801123 82.13241216-12.82801123l94.98804022 1.27037355c5.13672786 10.28726414 19.24892107 15.41018358 19.24892107 15.41018358 62.89729949 10.25964732 71.87276483 0 71.87276484 0 35.95709503-20.54691145-2.56836393-41.06620607-2.56836392-41.06620608-30.80655875-7.7189002-26.94020447-17.97854752-26.94020447-17.97854751s2.07126124-34.68672148-3.21735912-96.89360055c-3.6730366-43.42744388-13.39415599-91.35642885 4.50154108-109.74922862 22.4662802-23.08765856 44.40784087-79.93687523 52.62384378-109.08642503 33.08494611-117.53717087-1.03563061-167.64788432 10.24583891-222.05301274ZM791.38486633 838.56885466c15.41018358-11.55763769 24.38564893-61.61311754 24.38564895-61.61311754 15.41018358 7.7189002 26.96782128 61.61311754 26.96782127 61.61311754-32.10454914 7.70509179-51.3534702 0-51.35347022 0Z" fill="#ef675c" p-id="905"></path></svg>